<?xml version="1.0" encoding="UTF-8" standalone="no"?>
<!-- Created with Inkscape (http://www.inkscape.org/) -->

<svg
   width="60"
   height="60"
   viewBox="0 0 15.875 15.875"
   version="1.1"
   id="svg5"
   inkscape:version="1.1.2 (0a00cf5339, 2022-02-04)"
   sodipodi:docname="logobrwic.svg"
   xmlns:inkscape="http://www.inkscape.org/namespaces/inkscape"
   xmlns:sodipodi="http://sodipodi.sourceforge.net/DTD/sodipodi-0.dtd"
   xmlns="http://www.w3.org/2000/svg"
   xmlns:svg="http://www.w3.org/2000/svg">
  <sodipodi:namedview
     id="namedview7"
     pagecolor="#ffffff"
     bordercolor="#666666"
     borderopacity="1.0"
     inkscape:pageshadow="2"
     inkscape:pageopacity="0.0"
     inkscape:pagecheckerboard="0"
     inkscape:document-units="px"
     showgrid="true"
     height="100mm"
     units="px"
     inkscape:zoom="1.4142136"
     inkscape:cx="38.183765"
     inkscape:cy="92.630986"
     inkscape:window-width="1600"
     inkscape:window-height="840"
     inkscape:window-x="0"
     inkscape:window-y="0"
     inkscape:window-maximized="1"
     inkscape:current-layer="layer1"
     inkscape:snap-global="true">
    <inkscape:grid
       type="xygrid"
       id="grid1089" />
  </sodipodi:namedview>
  <defs
     id="defs2" />
  <g
     inkscape:label="Camada 1"
     inkscape:groupmode="layer"
     id="layer1">
    <g
       id="g1743"
       transform="matrix(-0.92392548,0,0,0.59728783,22.731953,6.8002001)"
       style="fill:#000000" />
    <g
       id="g2140"
       transform="matrix(0.92392548,0,0,0.59728783,3.7256643,6.8002001)"
       style="fill:#000000" />
    <g
       id="g2914"
       transform="matrix(0.92392548,0,0,0.59728783,3.7256643,6.8002001)"
       style="fill:#000000" />
    <g
       id="g831"
       transform="matrix(0.59999996,0,0,0.59999996,-8.0921956e-7,1.2138292e-6)">
      <path
         id="rect931"
         style="fill:#000000;stroke-width:1.60352;stroke-linecap:square;stroke-dashoffset:3.77953;paint-order:markers fill stroke;stop-color:#000000"
         d="M 30 0 L 0 30 L 30 60 L 60 30 L 30 0 z M 30 19.501953 A 10.316677 10.316677 0 0 1 40.316406 29.818359 A 10.316677 10.316677 0 0 1 30 40.136719 A 10.316677 10.316677 0 0 1 19.683594 29.818359 A 10.316677 10.316677 0 0 1 30 19.501953 z "
         transform="matrix(0.44097225,0,0,0.44097225,1.3486994e-6,-2.0230488e-6)" />
      <circle
         style="fill:#000000;stroke-width:0.836437;stroke-linecap:round;stroke-linejoin:round;stroke-dashoffset:3.77953;paint-order:markers fill stroke;stop-color:#000000"
         id="circle5149"
         cx="13.229166"
         cy="13.149449"
         r="2.1330554" />
    </g>
  </g>
</svg>
