<?xml version="1.0" encoding="UTF-8" standalone="no"?>
<svg
   height="30"
   viewBox="0 -960 4000 1200"
   width="100"
   fill="#e8eaed"
   version="1.1"
   id="svg4"
   sodipodi:docname="icons.svg"
   inkscape:version="1.1.2 (0a00cf5339, 2022-02-04)"
   xmlns:inkscape="http://www.inkscape.org/namespaces/inkscape"
   xmlns:sodipodi="http://sodipodi.sourceforge.net/DTD/sodipodi-0.dtd"
   xmlns="http://www.w3.org/2000/svg"
   xmlns:svg="http://www.w3.org/2000/svg">
  <defs
     id="defs8" />
  <sodipodi:namedview
     id="namedview6"
     pagecolor="#ffffff"
     bordercolor="#666666"
     borderopacity="1.0"
     inkscape:pageshadow="2"
     inkscape:pageopacity="0.0"
     inkscape:pagecheckerboard="0"
     showgrid="false"
     inkscape:zoom="3.5729167"
     inkscape:cx="136.02332"
     inkscape:cy="-9.2361515"
     inkscape:window-width="1600"
     inkscape:window-height="840"
     inkscape:window-x="0"
     inkscape:window-y="0"
     inkscape:window-maximized="1"
     inkscape:current-layer="svg4"
     height="30px" />
  <path
     d="m 2455.2416,16.059472 -143.182,-143.182002 48.0081,-48.00809 61.4841,61.48405 v -173.50294 h -172.6607 l 61.484,60.64181 -48.8503,48.85034 -143.182,-143.18203 142.3397,-142.33979 48.0081,48.00809 -60.6418,60.64181 h 173.503 v -173.50294 l -61.4841,61.48405 -48.0081,-48.00809 143.182,-143.18203 143.1821,143.18203 -48.0081,48.00809 -61.4841,-61.48405 v 173.50294 h 172.6607 l -61.484,-60.64181 48.8503,-48.85034 143.182,143.18204 -143.182,143.18203 -48.0081,-48.0081 61.4841,-61.48405 h -173.503 v 172.66069 l 60.6418,-61.48405 48.8504,48.85034 z"
     id="path2"
     style="fill:#4d4d4d;fill-opacity:1;stroke-width:0.842247" />
  <g
     style="fill:#4d4d4d;fill-opacity:1"
     id="g889"
     transform="matrix(0.84224724,0,0,0.84224724,-73.21212,83.439255)">
    <path
       d="m 480,-80 q -116,0 -198,-82 -82,-82 -82,-198 v -240 q 0,-116 82,-198 82,-82 198,-82 116,0 198,82 82,82 82,198 v 240 q 0,116 -82,198 -82,82 -198,82 z m 40,-520 h 160 q 0,-72 -45.5,-127 Q 589,-782 520,-796 Z m -240,0 h 160 v -196 q -69,14 -114.5,69 -45.5,55 -45.5,127 z m 200,440 q 83,0 141.5,-58.5 Q 680,-277 680,-360 V -520 H 280 v 160 q 0,83 58.5,141.5 Q 397,-160 480,-160 Z m 0,-360 z m 40,-80 z m -80,0 z m 40,80 z"
       id="path880"
       style="fill:#4d4d4d;fill-opacity:1" />
  </g>
  <g
     style="fill:#4d4d4d;fill-opacity:1"
     id="g900"
     transform="matrix(0.84224724,0,0,0.84224724,904.6506,83.439255)">
    <path
       d="m 380,-720 v -98 l -238,238 h 98 v 60 H 40 v -200 h 60 v 98 l 238,-238 h -98 v -60 h 200 v 200 z m 213,680 q -24,0 -46,-9 -22,-9 -39,-26 l -204,-205 30,-31 q 16,-16 37.5,-21.5 21.5,-5.5 42.5,0.5 l 66,19 v -327 q 0,-17 11.5,-28.5 11.5,-11.5 28.5,-11.5 17,0 28.5,11.5 11.5,11.5 11.5,28.5 v 433 l -97,-27 102,102 q 5,5 12.5,8.5 7.5,3.5 15.5,3.5 h 167 q 33,0 56.5,-23.5 Q 840,-167 840,-200 v -160 q 0,-17 11.5,-28.5 11.5,-11.5 28.5,-11.5 17,0 28.5,11.5 11.5,11.5 11.5,28.5 v 160 q 0,66 -47,113 -47,47 -113,47 z m 7,-280 v -160 q 0,-17 11.5,-28.5 11.5,-11.5 28.5,-11.5 17,0 28.5,11.5 11.5,11.5 11.5,28.5 v 160 z m 120,0 v -120 q 0,-17 11.5,-28.5 11.5,-11.5 28.5,-11.5 17,0 28.5,11.5 11.5,11.5 11.5,28.5 v 120 z m -20,80 z"
       id="path891"
       style="fill:#4d4d4d;fill-opacity:1" />
  </g>
  <g
     style="fill:#4d4d4d;fill-opacity:1"
     id="g911"
     transform="matrix(0.84224724,0,0,0.84224724,3197.275,83.439255)">
    <path
       d="M 784,-120 532,-372 q -30,24 -69,38 -39,14 -83,14 -109,0 -184.5,-75.5 Q 120,-471 120,-580 120,-689 195.5,-764.5 271,-840 380,-840 q 109,0 184.5,75.5 75.5,75.5 75.5,184.5 0,44 -14,83 -14,39 -38,69 l 252,252 z M 380,-400 q 75,0 127.5,-52.5 Q 560,-505 560,-580 560,-655 507.5,-707.5 455,-760 380,-760 305,-760 252.5,-707.5 200,-655 200,-580 q 0,75 52.5,127.5 Q 305,-400 380,-400 Z m -40,-60 v -80 h -80 v -80 h 80 v -80 h 80 v 80 h 80 v 80 h -80 v 80 z"
       id="path902"
       style="fill:#4d4d4d;fill-opacity:1" />
  </g>
</svg>
