<?xml version="1.0" encoding="UTF-8" standalone="no"?>
<!-- Created with Inkscape (http://www.inkscape.org/) -->

<svg
   width="100"
   height="100"
   viewBox="0 0 26.458333 26.458333"
   version="1.1"
   id="svg5"
   inkscape:version="1.1.2 (0a00cf5339, 2022-02-04)"
   sodipodi:docname="eye5-2.svg"
   xmlns:inkscape="http://www.inkscape.org/namespaces/inkscape"
   xmlns:sodipodi="http://sodipodi.sourceforge.net/DTD/sodipodi-0.dtd"
   xmlns="http://www.w3.org/2000/svg"
   xmlns:svg="http://www.w3.org/2000/svg">
  <sodipodi:namedview
     id="namedview7"
     pagecolor="#ffffff"
     bordercolor="#666666"
     borderopacity="1.0"
     inkscape:pageshadow="2"
     inkscape:pageopacity="0.0"
     inkscape:pagecheckerboard="0"
     inkscape:document-units="px"
     showgrid="true"
     height="100mm"
     units="px"
     inkscape:zoom="4"
     inkscape:cx="41.625"
     inkscape:cy="9.75"
     inkscape:window-width="1920"
     inkscape:window-height="1020"
     inkscape:window-x="0"
     inkscape:window-y="0"
     inkscape:window-maximized="1"
     inkscape:current-layer="layer1"
     inkscape:snap-global="true">
    <inkscape:grid
       type="xygrid"
       id="grid1089" />
  </sodipodi:namedview>
  <defs
     id="defs2" />
  <g
     inkscape:label="Camada 1"
     inkscape:groupmode="layer"
     id="layer1">
    <rect
       style="fill:#ffffff;stroke-width:0.707107;stroke-linecap:square;stroke-dashoffset:3.77953;paint-order:markers fill stroke;stop-color:#000000"
       id="rect931"
       width="18.708868"
       height="18.708868"
       x="-28.063299"
       y="-9.354434"
       transform="rotate(-135)" />
    <g
       id="g3194"
       transform="matrix(-0.66176688,0,0,0.40617975,20.035962,8.8572105)"
       style="fill:#ffffff">
      <path
         id="path3192"
         style="fill:#000000;stroke:none;stroke-width:1.33404;stroke-linecap:square;stroke-linejoin:miter;stroke-dashoffset:3.77953;paint-order:markers fill stroke;stop-color:#000000"
         d="M 50,23.75 C 34.033691,23.75 18.067382,32.500001 1.1347656,50 34.999999,85.000002 64.999999,85.000002 98.865234,50 81.932617,32.500001 65.966309,23.75 50,23.75 Z m 0,6.386719 A 19.437684,19.437684 0 0 1 69.4375,49.574219 19.437684,19.437684 0 0 1 50,69.011719 19.437684,19.437684 0 0 1 30.5625,49.574219 19.437684,19.437684 0 0 1 50,30.136719 Z"
         transform="matrix(-0.28636869,0,0,0.46656514,24.604225,-12.564658)" />
    </g>
    <g
       id="g1743"
       transform="matrix(-0.92392548,0,0,0.59728783,22.731953,6.8002001)"
       style="fill:#000000" />
    <g
       id="g2140"
       transform="matrix(0.92392548,0,0,0.59728783,3.7256643,6.8002001)"
       style="fill:#000000" />
    <g
       id="g2914"
       transform="matrix(0.92392548,0,0,0.59728783,3.7256643,6.8002001)"
       style="fill:#000000" />
    <circle
       style="fill:#000000;stroke-width:0.677263;stroke-linecap:round;stroke-linejoin:round;stroke-dashoffset:3.77953;paint-order:markers fill stroke;stop-color:#000000"
       id="circle5149"
       cx="13.229166"
       cy="13.148417"
       r="1.7271341" />
  </g>
</svg>
